<svg xmlns="http://www.w3.org/2000/svg" viewBox="0 0 180 58" width="180" height="58">
	<style>
		tspan { white-space:pre }
		.shp0 { fill: #808080 } 
	</style>
	<path id="Layer" class="shp0" d="M174.1 17.6C171 17.6 168.5 15.1 168.5 12C168.5 8.9 171 6.4 174.1 6.4C177.2 6.4 179.7 8.9 179.7 12C179.7 15.1 177.2 17.6 174.1 17.6Z" />
	<path id="Layer" class="shp0" d="M177.6 46.4L179.4 46.4C178.5 49.1 177.3 51.6 175.6 53.9C174.1 55.8 171.9 57 169.5 57C165.3 57 161.9 53.5 161.8 49.3C161.8 47.7 162 46.2 162.3 44.7L167.1 22L177.3 21.4L172 46.4C172 46.4 171.3 49.1 173.5 50C173.5 49.9 176 51.1 177.6 46.4Z" />
	<path id="Layer" class="shp0" d="M163.6 26.5C163.6 23.6 161.3 21.3 158.4 21.3L158.4 21.3C158.4 21.3 154.5 21.1 150.1 25.5L151 21.2L140.8 21.2L133.4 56.2L143.5 56.2L149.2 29.5C152.5 26.2 155.5 26 155.7 28.8C155.7 30.3 156.9 31.5 158.5 31.6C161.2 31.7 163.6 29.4 163.6 26.5Z" />
	<path id="Layer" class="shp0" d="M49.7 16.2L49.7 16.2L49.7 16.2L49.7 16.2Z" />
	<path id="Layer" fill-rule="evenodd" class="shp0" d="M47.9 18.1C47.9 18.1 45.1 19.6 43.1 17.4C41.9 16.1 41.8 14.1 42.8 12.7C43.5 11.6 43.8 10.5 44 9.3C44.3 6.9 43.2 4.5 39.4 4.1C30.2 3.1 19.7 22.3 18 37.9C17.2 44.9 21 50.2 29 51.1C29.1 51.1 40.8 52.3 47.9 43L55.4 7.8L65.6 7.2L61.8 24.8C63.8 22.3 66.9 20.8 70.1 20.7C70.3 20.7 70.5 20.7 70.7 20.7C74.9 21.1 78 24.7 77.7 28.9C77.5 34.6 74.1 42.7 74.3 46.6C74.4 48.5 76 49.9 77.9 49.9C80.4 49.8 81.2 48.1 82.1 45.8C82.1 45.7 82.1 45.7 82.1 45.6C82.1 37.6 86.6 20.8 101 20.8C105.9 20.8 108.7 23.9 108.7 27.4C108.7 35.5 101 41.7 92.6 42.2C92.6 43.2 92.5 44.2 92.5 45C92.5 49.8 94.1 50.9 97.5 50.9C103 50.9 106.4 47.8 109.9 43.8L114.7 21.3L124.9 21.3L124 25.6C128.4 21.2 132.3 21.4 132.3 21.4C135.1 21.4 137.4 23.7 137.4 26.5C137.5 29.4 135.2 31.8 132.3 31.8C130.7 31.7 129.5 30.5 129.5 29C129.3 26.2 126.3 26.4 123 29.7L117.3 56.4L107.2 56.4L108.9 48.5C105.1 53.1 99.9 56.9 92.9 56.9C87.9 56.9 84.2 54.9 82.7 50.6C79.1 55.8 75.6 56.9 72.8 56.9C66.7 56.9 64.5 52.9 64.5 48.9C64.5 44.1 67.6 35.5 67.6 31C67.5 29.4 66.4 28 64.8 27.6C62.1 27.2 60.6 28.5 59.7 33.4L57.3 44.8L54.9 56.3L44.8 56.3L46.5 48.2C40.2 56.4 26.8 58.6 19.7 57.8C7.3 56.5 -1 48.4 0.5 34.7C2.1 20.8 15.1 -1.3 34.8 0.1C42.7 0.6 51.7 5.1 50.9 12.5C50.5 16.8 47.9 18.1 47.9 18.1ZM92.9 39C98.3 38.6 103.1 33.2 103.1 27.4C103.1 27.3 103.1 27.3 103.1 27.2C103.1 26.7 103 26.2 102.7 25.8C102 24.7 100.5 24.4 99.4 25.2C96.6 27.2 94.1 33.2 92.9 39Z" />
</svg>