<?xml version="1.0" encoding="utf-8"?>
<!-- Generator: Adobe Illustrator 23.1.1, SVG Export Plug-In . SVG Version: 6.00 Build 0)  -->
<svg version="1.1" id="圖層_1" xmlns="http://www.w3.org/2000/svg" xmlns:xlink="http://www.w3.org/1999/xlink" x="0px" y="0px"
	 viewBox="0 0 202 80" style="enable-background:new 0 0 202 80;" xml:space="preserve">
<style type="text/css">
	.st0{fill:#EEEEEE;}
</style>
<title>Cherri</title>
<g>
	<circle class="st0" cx="185.1" cy="23" r="5.6"/>
	<path class="st0" d="M188.6,57.4h1.8c-0.9,2.7-2.1,5.2-3.8,7.5c-1.5,1.9-3.7,3.1-6.1,3.1c-4.2,0-7.6-3.5-7.7-7.7
		c0-1.6,0.2-3.1,0.5-4.6l4.8-22.7l10.2-0.6L183,57.4c0,0-0.7,2.7,1.5,3.6C184.5,60.9,187,62.1,188.6,57.4z"/>
	<path class="st0" d="M174.6,37.5c0-2.9-2.3-5.2-5.2-5.2l0,0c0,0-3.9-0.2-8.3,4.2l0.9-4.3h-10.2l-7.4,35h10.1l5.7-26.7
		c3.3-3.3,6.3-3.5,6.5-0.7c0,1.5,1.2,2.7,2.8,2.8C172.2,42.7,174.6,40.4,174.6,37.5z"/>
	<path class="st0" d="M60.7,27.2L60.7,27.2L60.7,27.2L60.7,27.2z"/>
	<path class="st0" d="M61.9,23.5c0.8-7.4-8.2-11.9-16.1-12.4C26.1,9.7,13.1,31.8,11.5,45.7C10,59.4,18.3,67.5,30.7,68.8
		c7.1,0.8,20.5-1.4,26.8-9.6l-1.7,8.1h10.1l2.4-11.5l2.4-11.4c0.9-4.9,2.4-6.2,5.1-5.8c1.6,0.4,2.7,1.8,2.8,3.4
		c0,4.5-3.1,13.1-3.1,17.9c0,4,2.2,8,8.3,8c2.8,0,6.3-1.1,9.9-6.3c1.5,4.3,5.2,6.3,10.2,6.3c7,0,12.2-3.8,16-8.4l-1.7,7.9h10.1
		l5.7-26.7c3.3-3.3,6.3-3.5,6.5-0.7c0,1.5,1.2,2.7,2.8,2.8c2.9,0,5.2-2.4,5.1-5.3c0-2.8-2.3-5.1-5.1-5.1c0,0-3.9-0.2-8.3,4.2
		l0.9-4.3h-10.2l-4.8,22.5h0c-3.5,4-6.9,7.1-12.4,7.1c-3.4,0-5-1.1-5-5.9c0-0.8,0.1-1.8,0.1-2.8c8.4-0.5,16.1-6.7,16.1-14.8
		c0-3.5-2.8-6.6-7.7-6.6c-14.4,0-18.9,16.8-18.9,24.8c0,0.1,0,0.1,0,0.2c-0.9,2.3-1.7,4-4.2,4.1c-1.9,0-3.5-1.4-3.6-3.3
		c-0.2-3.9,3.2-12,3.4-17.7c0.3-4.2-2.8-7.8-7-8.2c-0.2,0-0.4,0-0.6,0c-3.2,0.1-6.3,1.6-8.3,4.1l3.8-17.6l-10.2,0.6l-7.5,35.2
		c-7.1,9.3-18.8,8.1-18.9,8.1c-8-0.9-11.8-6.2-11-13.2c1.7-15.6,12.2-34.8,21.4-33.8c3.8,0.4,4.9,2.8,4.6,5.2
		c-0.2,1.2-0.5,2.3-1.2,3.4c-1,1.4-0.9,3.4,0.3,4.7c2,2.2,4.8,0.7,4.8,0.7S61.5,27.8,61.9,23.5z M110.4,36.2
		c1.1-0.8,2.6-0.5,3.3,0.6c0.3,0.4,0.4,0.9,0.4,1.4l0,0c0,0.1,0,0.1,0,0.2c0,5.8-4.8,11.2-10.2,11.6
		C105.1,44.2,107.6,38.2,110.4,36.2z"/>
</g>
</svg>
